<svg width="36" height="35" viewBox="0 0 36 35" fill="none" xmlns="http://www.w3.org/2000/svg">
<path d="M18 0C8.61077 0 1 7.61077 1 17C1 26.3892 8.61077 34 18 34C27.3892 34 35 26.3892 35 17C35 7.61077 27.3892 0 18 0ZM23.379 26.4067C22.638 27.1215 21.1123 27.6533 19.6477 27.6795C19.5954 27.6795 19.5344 27.6795 19.4821 27.6795C14.6697 27.6795 13.3882 24.0005 13.3882 21.8297V15.1605C13.3882 15.1082 13.3446 15.0646 13.2923 15.0646H10.9646C10.9123 15.0646 10.8687 15.021 10.8687 14.9687V11.9262C10.8687 11.8826 10.8949 11.8477 10.9297 11.8303C13.4144 10.8626 14.8092 8.9359 15.1754 5.96308C15.1928 5.79744 15.3323 5.79744 15.3323 5.79744H18.4359C18.4882 5.79744 18.5318 5.84103 18.5318 5.89333V11.2374C18.5318 11.2897 18.5754 11.3333 18.6277 11.3333H22.4985C22.5508 11.3333 22.5944 11.3769 22.5944 11.4292V14.96C22.5944 15.0123 22.5508 15.0559 22.4985 15.0559H18.6103C18.5579 15.0559 18.5144 15.0995 18.5144 15.1518V21.4897C18.5405 22.9195 19.2292 23.6431 20.5718 23.6431C21.1123 23.6431 21.7313 23.521 22.2979 23.3031C22.3503 23.2856 22.4113 23.3118 22.4287 23.3641L23.4138 26.2933C23.4138 26.3456 23.4051 26.3805 23.379 26.4067Z" fill="#67799B"/>
</svg>
