<svg width="36" height="35" viewBox="0 0 36 35" fill="none" xmlns="http://www.w3.org/2000/svg">
<path fill-rule="evenodd" clip-rule="evenodd" d="M17.799 34.6271C27.361 34.6271 35.1125 26.8755 35.1125 17.3135C35.1125 7.75154 27.361 0 17.799 0C8.23695 0 0.485413 7.75154 0.485413 17.3135C0.485413 26.8755 8.23695 34.6271 17.799 34.6271ZM29.3063 13.2063C29.2953 10.7333 28.1814 9.46928 25.9546 9.41077H25.6963C22.6206 9.42181 20.5407 11.0921 19.4588 14.4273C20.0627 14.2098 20.6268 14.0972 21.1556 14.0972C22.1978 14.0972 22.7211 14.5708 22.7211 15.5213C22.7211 15.645 22.7133 15.7785 22.6924 15.921C22.6261 16.6231 22.1117 17.7017 21.1556 19.1578C20.1775 20.5754 19.4533 21.2841 18.983 21.2841C18.3703 21.2753 17.8006 20.1823 17.2718 18.0075C17.1769 17.6818 17.0576 17.11 16.9152 16.2886C16.7684 15.4694 16.5873 14.403 16.3687 13.0915C15.9768 10.7919 14.9777 9.6426 13.3781 9.6426C13.2721 9.6426 13.1683 9.64592 13.0645 9.65695C12.2851 9.753 11.1491 10.3999 9.65542 11.5967L7.9873 12.991L6.29158 14.3997L7.38452 15.6924C8.41013 15.0234 9.00738 14.6878 9.1796 14.6878C9.96674 14.6878 10.7042 15.836 11.3942 18.1367L12.3304 21.3117L13.2776 24.4912C14.1795 26.8107 15.3034 27.9698 16.6569 27.9698C18.8328 27.9599 21.4824 26.0644 24.6056 22.2777C27.6338 18.6633 29.1937 15.8073 29.292 13.7108C29.3008 13.5375 29.3063 13.3686 29.3063 13.2063Z" fill="#67799B"/>
</svg>
