<svg width="35" height="35" viewBox="0 0 35 35" fill="none" xmlns="http://www.w3.org/2000/svg">
<path fill-rule="evenodd" clip-rule="evenodd" d="M18 34C27.3888 34 35 26.3888 35 17C35 7.61116 27.3888 0 18 0C8.61116 0 1 7.61116 1 17C1 26.3888 8.61116 34 18 34ZM16.2149 7.02857C16.8655 6.84571 17.5195 6.80352 18.1912 6.8C18.469 6.8 18.7468 6.82462 19.0351 6.85626C19.9775 6.99692 20.8883 7.35911 21.6373 7.94987C22.1331 8.3402 22.5515 8.82898 22.8786 9.37051C23.0544 9.66238 23.2161 9.97182 23.3216 10.2953C23.4271 10.6259 23.4799 10.974 23.5115 11.3221C23.5819 12.1028 23.5432 12.894 23.4975 13.6746L23.4658 14.1704C23.4623 14.2235 23.4587 14.2774 23.4552 14.3313C23.4517 14.3846 23.4482 14.438 23.4447 14.4904C23.444 14.4997 23.4429 14.509 23.4417 14.5183C23.4372 14.5553 23.4328 14.5918 23.4553 14.617C23.4697 14.6343 23.5007 14.6422 23.5249 14.6483C23.5302 14.6497 23.5352 14.6509 23.5397 14.6522C23.9003 14.769 24.2979 14.5972 24.6275 14.4548L24.6508 14.4447C25.1924 14.2126 26.2368 14.5819 26.0609 15.3133C25.9941 15.5911 25.748 15.788 25.5124 15.9251C25.2635 16.0728 24.9933 16.1631 24.7217 16.2538C24.6442 16.2797 24.5664 16.3057 24.4891 16.333C24.2043 16.435 23.8737 16.5616 23.6909 16.8148C23.4939 17.0891 23.61 17.4196 23.7366 17.6974C23.821 17.8768 23.9124 18.0526 24.0109 18.2249C24.4891 19.0477 25.1291 19.7967 25.9168 20.3347C26.4302 20.6864 27.0104 20.9396 27.6222 21.0626C27.6367 21.0655 27.6511 21.0682 27.6655 21.0709C27.8119 21.0985 27.9517 21.1248 28.0477 21.256C28.1497 21.3967 28.1462 21.5725 28.0794 21.7273C28.009 21.8925 27.8684 22.0156 27.7242 22.1141C27.2214 22.4516 26.5743 22.5888 25.9906 22.7013C25.8816 22.7224 25.7691 22.7435 25.6565 22.7611C25.6372 22.7645 25.6149 22.7666 25.5917 22.7689C25.5181 22.776 25.4346 22.7841 25.3998 22.8349C25.3379 22.9212 25.3151 23.057 25.2952 23.1759C25.2891 23.2121 25.2833 23.2468 25.2768 23.278C25.2696 23.3119 25.2627 23.347 25.2556 23.3829C25.1939 23.6971 25.1214 24.0658 24.7458 24.0973C24.5339 24.1166 24.3203 24.0732 24.1096 24.0304C24.0126 24.0106 23.9163 23.9911 23.821 23.9778C23.3849 23.918 22.9419 23.9145 22.5058 23.9743C21.876 24.0599 21.372 24.4168 20.8678 24.7739C20.7301 24.8713 20.5925 24.9688 20.4522 25.0608C19.8544 25.4547 19.2039 25.75 18.483 25.8169C17.7129 25.8907 16.9393 25.7922 16.2395 25.4582C15.8621 25.2765 15.5228 25.0381 15.1833 24.7994C14.9313 24.6223 14.6791 24.445 14.411 24.2907C13.6866 23.8758 12.811 23.8688 12.0058 24.0129C11.9466 24.0233 11.8826 24.0379 11.8158 24.0531C11.5415 24.1158 11.2214 24.189 11.0036 24.0164C10.8981 23.9356 10.8559 23.816 10.8207 23.6929C10.7881 23.5755 10.7622 23.4567 10.7364 23.3382C10.7204 23.2651 10.7045 23.1922 10.6871 23.1198C10.6815 23.0994 10.6762 23.0787 10.6709 23.0581C10.656 23.0003 10.641 22.9421 10.6203 22.8877C10.5869 22.8058 10.5483 22.7998 10.4751 22.7884C10.4635 22.7865 10.451 22.7846 10.4374 22.7822C10.2335 22.7505 10.0295 22.7119 9.82557 22.6697C9.49151 22.5993 9.16097 22.5149 8.84097 22.3954C8.47878 22.2617 7.96538 22.0402 7.88099 21.6112C7.84934 21.4424 7.90912 21.2701 8.04978 21.1681C8.14371 21.1021 8.26696 21.0819 8.38514 21.0626C8.43066 21.0551 8.47542 21.0478 8.51746 21.038C8.82691 20.9677 9.12932 20.8622 9.41767 20.7251C10.3741 20.275 11.1548 19.5119 11.7385 18.6398C11.9108 18.3831 12.0691 18.1194 12.2027 17.8416C12.375 17.4864 12.5578 17.0574 12.2308 16.7339C12.0058 16.5089 11.6822 16.3999 11.3869 16.3014L11.3763 16.2979C11.0246 16.183 10.67 16.0672 10.3636 15.8548C9.97678 15.5876 9.74118 15.1199 10.1139 14.726C10.3319 14.494 10.6871 14.3603 11.0036 14.392C11.1358 14.4057 11.2577 14.4592 11.3788 14.5125C11.4445 14.5414 11.51 14.5701 11.5768 14.5924C11.7526 14.6522 11.9319 14.6944 12.1183 14.7014C12.2203 14.7049 12.4734 14.712 12.5543 14.6205C12.5806 14.5864 12.5618 14.4427 12.5491 14.3456C12.5448 14.3126 12.5412 14.285 12.5403 14.2689C12.5367 14.2214 12.5341 14.174 12.5315 14.1265C12.5288 14.079 12.5262 14.0315 12.5227 13.9841C12.4981 13.5903 12.4734 13.1964 12.4629 12.8025C12.4383 12.0535 12.4383 11.2835 12.6141 10.552C12.7723 9.89798 13.1381 9.27557 13.56 8.75514C14.2387 7.91471 15.1776 7.32395 16.2149 7.02857Z" fill="#67799B"/>
</svg>
