<svg width="35" height="35" viewBox="0 0 35 35" fill="none" xmlns="http://www.w3.org/2000/svg">
<path d="M18 0C8.61077 0 1 7.61077 1 17C1 26.3892 8.61077 34 18 34C27.3892 34 35 26.3892 35 17C35 7.61077 27.3892 0 18 0ZM23.5795 10.2697H21.5569C19.9703 10.2697 19.6564 11.0195 19.6564 12.1267V14.559H23.4226L22.9344 18.3949H19.6564V28.159H15.7333V18.3949H12.4205V14.559H15.7333V11.7518C15.7333 8.48256 17.721 6.71282 20.6415 6.71282C21.6267 6.71282 22.6031 6.75641 23.5795 6.86103V10.2697Z" fill="#67799B"/>
</svg>
