<svg width="35" height="35" viewBox="0 0 35 35" fill="none" xmlns="http://www.w3.org/2000/svg">
<path fill-rule="evenodd" clip-rule="evenodd" d="M1 17C1 7.61077 8.61077 0 18 0C27.3892 0 35 7.61077 35 17C35 26.3892 27.3892 34 18 34C8.61077 34 1 26.3892 1 17ZM17.0418 20.2272C17.5795 20.7356 18.4206 20.7356 18.9583 20.2272L20.8192 18.4679L26.6379 23.9693H9.3622L15.1809 18.4679L17.0418 20.2272ZM13.6582 17.0282L8.10951 22.2742V11.7823L13.6582 17.0282ZM9.30244 10.0307H26.6977L18 18.2539L9.30244 10.0307ZM22.3419 17.0282L27.8905 11.7823V22.2741L22.3419 17.0282Z" fill="#67799B"/>
</svg>
