<svg width="35" height="35" viewBox="0 0 35 35" fill="none" xmlns="http://www.w3.org/2000/svg">
<path d="M17.5045 -0.000366211C7.94206 -0.000366211 0.190918 7.75077 0.190918 17.3132C0.190918 26.8756 7.94206 34.6267 17.5045 34.6267C27.0669 34.6267 34.818 26.8756 34.818 17.3132C34.818 7.75077 27.0669 -0.000366211 17.5045 -0.000366211ZM27.2888 22.2586C27.058 23.1465 26.3654 23.839 25.4864 24.0788C23.8883 24.505 17.5045 24.505 17.5045 24.505C17.5045 24.505 11.1206 24.505 9.53135 24.0788C8.65236 23.839 7.95981 23.1465 7.72897 22.2586C7.29391 20.6605 7.29391 17.3132 7.29391 17.3132C7.29391 17.3132 7.29391 13.9659 7.72009 12.3677C7.95094 11.4798 8.64348 10.7873 9.52247 10.5476C11.1206 10.1214 17.5045 10.1214 17.5045 10.1214C17.5045 10.1214 23.8883 10.1214 25.4776 10.5476C26.3566 10.7873 27.0491 11.4798 27.2799 12.3677C27.7061 13.9659 27.7061 17.3132 27.7061 17.3132C27.7061 17.3132 27.715 20.6605 27.2888 22.2586Z" fill="#67799B"/>
<path d="M15.418 20.3497L20.7541 17.3132L15.418 14.2766V20.3497Z" fill="#67799B"/>
</svg>
