<svg width="36" height="35" viewBox="0 0 36 35" fill="none" xmlns="http://www.w3.org/2000/svg">
<path d="M18 0C8.61077 0 1 7.61077 1 17C1 26.3892 8.61077 34 18 34C27.3892 34 35 26.3892 35 17C35 7.61077 27.3892 0 18 0ZM26.6744 12.5538C26.6831 12.7456 26.6831 12.9374 26.6831 13.1292C26.6831 19.04 22.1846 25.8574 13.9549 25.8574C11.4267 25.8574 9.07282 25.1164 7.09385 23.8436C7.44256 23.8872 7.8 23.9046 8.15744 23.9046C10.2497 23.9046 12.1851 23.1897 13.7195 21.9867C11.7579 21.9518 10.1103 20.6528 9.53487 18.8744C9.80513 18.9267 10.0841 18.9528 10.3718 18.9528C10.7815 18.9528 11.1738 18.9005 11.5487 18.7959C9.50872 18.4036 7.97436 16.599 7.97436 14.4282C7.97436 14.4108 7.97436 14.3933 7.97436 14.3672C8.5759 14.6985 9.26462 14.9077 9.99692 14.9251C8.79385 14.1231 8.00923 12.7544 8.00923 11.2026C8.00923 10.3831 8.22718 9.6159 8.61949 8.95333C10.8251 11.6646 14.1205 13.4431 17.8431 13.6262C17.7646 13.2949 17.7297 12.9549 17.7297 12.6062C17.7297 10.139 19.7349 8.13385 22.2021 8.13385C23.4923 8.13385 24.6518 8.67436 25.4713 9.54615C26.4913 9.34564 27.4503 8.97077 28.3133 8.45641C27.9821 9.50256 27.2672 10.3744 26.3431 10.9323C27.2497 10.8277 28.1128 10.5836 28.9149 10.2262C28.3046 11.1328 27.5462 11.9174 26.6744 12.5538Z" fill="#67799B"/>
</svg>
