<svg width="35" height="35" viewBox="0 0 35 35" fill="none" xmlns="http://www.w3.org/2000/svg">
<path d="M17.3134 -0.000366211C7.75105 -0.000366211 -9.15527e-05 7.75077 -9.15527e-05 17.3132C-9.15527e-05 26.8756 7.75105 34.6267 17.3134 34.6267C26.8759 34.6267 34.627 26.8756 34.627 17.3132C34.627 7.75077 26.8759 -0.000366211 17.3134 -0.000366211ZM12.7764 25.4372H8.96744V13.1846H12.7764V25.4372ZM10.8675 11.5154C9.6511 11.5154 8.65668 10.5298 8.65668 9.30455C8.65668 8.08817 9.64222 7.09375 10.8675 7.09375C12.0839 7.09375 13.0694 8.07929 13.0694 9.30455C13.0783 10.5209 12.0928 11.5154 10.8675 11.5154ZM27.0357 25.4372H23.2356V19.4796C23.2356 18.059 23.2089 16.23 21.2556 16.23C19.2757 16.23 18.9738 17.7749 18.9738 19.373V25.4372H15.1737V13.1846H18.8228V14.8626H18.8761C19.3822 13.9037 20.6252 12.8827 22.4809 12.8827C26.3342 12.8827 27.0445 15.422 27.0445 18.716V25.4372H27.0357Z" fill="#67799B"/>
</svg>
