<svg width="34" height="35" viewBox="0 0 34 35" fill="none" xmlns="http://www.w3.org/2000/svg">
<path d="M16.7888 20.8913C18.705 20.8913 20.2585 19.2893 20.2585 17.3132C20.2585 15.337 18.705 13.735 16.7888 13.735C14.8725 13.735 13.3191 15.337 13.3191 17.3132C13.3191 19.2893 14.8725 20.8913 16.7888 20.8913Z" fill="#67799B"/>
<path d="M24.9077 10.9737C24.7183 10.4765 24.4944 10.1125 24.1242 9.7396C23.7626 9.3667 23.4096 9.12697 22.9275 8.93164C22.5572 8.7807 22.0062 8.61201 20.9903 8.55873C19.8882 8.50546 19.5611 8.49658 16.7802 8.49658C13.9992 8.49658 13.6721 8.50546 12.57 8.55873C11.5541 8.60313 11.0031 8.7807 10.6328 8.93164C10.1507 9.12697 9.7977 9.35782 9.43609 9.7396C9.07448 10.1125 8.84202 10.4765 8.65261 10.9737C8.50624 11.3555 8.34266 11.9238 8.291 12.9715C8.23935 14.1079 8.23073 14.4453 8.23073 17.3132C8.23073 20.181 8.23935 20.5184 8.291 21.6549C8.33405 22.7026 8.50624 23.2708 8.65261 23.6526C8.84202 24.1498 9.06587 24.5138 9.43609 24.8867C9.7977 25.2596 10.1507 25.4994 10.6328 25.6947C11.0031 25.8456 11.5541 26.0143 12.57 26.0676C13.6721 26.1209 13.9992 26.1298 16.7802 26.1298C19.5611 26.1298 19.8882 26.1209 20.9903 26.0676C22.0062 26.0232 22.5572 25.8456 22.9275 25.6947C23.4096 25.4994 23.7626 25.2685 24.1242 24.8867C24.4858 24.5138 24.7183 24.1498 24.9077 23.6526C25.0541 23.2708 25.2176 22.7026 25.2693 21.6549C25.321 20.5184 25.3296 20.181 25.3296 17.3132C25.3296 14.4453 25.321 14.1079 25.2693 12.9715C25.2263 11.9238 25.0541 11.3555 24.9077 10.9737ZM16.7888 22.8269C13.8356 22.8269 11.4421 20.3586 11.4421 17.3132C11.4421 14.2678 13.8356 11.7995 16.7888 11.7995C19.7419 11.7995 22.1354 14.2678 22.1354 17.3132C22.1354 20.3586 19.7419 22.8269 16.7888 22.8269ZM22.3506 12.8649C21.6618 12.8649 21.1022 12.2878 21.1022 11.5775C21.1022 10.8672 21.6618 10.2901 22.3506 10.2901C23.0394 10.2901 23.599 10.8672 23.599 11.5775C23.599 12.2878 23.0394 12.8649 22.3506 12.8649Z" fill="#67799B"/>
<path d="M16.7888 -0.000366211C7.51613 -0.000366211 -0.00012207 7.75077 -0.00012207 17.3132C-0.00012207 26.8756 7.51613 34.6267 16.7888 34.6267C26.0614 34.6267 33.5777 26.8756 33.5777 17.3132C33.5777 7.75077 26.0614 -0.000366211 16.7888 -0.000366211ZM27.1462 21.7437C27.0946 22.889 26.9224 23.6703 26.6641 24.354C26.3972 25.0643 26.0442 25.6592 25.4587 26.2541C24.8819 26.8489 24.2964 27.2218 23.6162 27.4971C22.9533 27.7634 22.1956 27.941 21.085 27.9943C19.9743 28.0476 19.6214 28.0564 16.7888 28.0564C13.9562 28.0564 13.6032 28.0476 12.4925 27.9943C11.3819 27.941 10.6242 27.7634 9.96128 27.4971C9.27251 27.2218 8.69566 26.8578 8.11881 26.2541C7.54196 25.6503 7.18036 25.0554 6.91346 24.354C6.65517 23.6703 6.48297 22.889 6.43131 21.7437C6.37965 20.5983 6.37105 20.2343 6.37105 17.3132C6.37105 14.3921 6.37965 14.028 6.43131 12.8827C6.48297 11.7373 6.65517 10.956 6.91346 10.2723C7.18036 9.56203 7.53335 8.96716 8.11881 8.37228C8.70427 7.77741 9.28112 7.4045 9.96128 7.12926C10.6242 6.8629 11.3819 6.68532 12.4925 6.63205C13.6032 6.57878 13.9562 6.5699 16.7888 6.5699C19.6214 6.5699 19.9743 6.57878 21.085 6.63205C22.1956 6.68532 22.9533 6.8629 23.6162 7.12926C24.305 7.4045 24.8819 7.76853 25.4587 8.37228C26.0356 8.96716 26.3972 9.57091 26.6641 10.2723C26.9224 10.956 27.0946 11.7373 27.1462 12.8827C27.1979 14.028 27.2065 14.3921 27.2065 17.3132C27.2065 20.2343 27.1979 20.5983 27.1462 21.7437Z" fill="#67799B"/>
</svg>
