<svg width="150" height="87" viewBox="0 0 150 87" fill="none" xmlns="http://www.w3.org/2000/svg">
<path d="M0.762207 24.7715H7.20995V16.0672H14.2057V11.0381H7.20995V6.2669H17.2362V0.915405H0.762207V24.7715Z" fill="#0D223F"/>
<path d="M19.1295 24.7715H25.5127V14.2619C26.3509 13.5849 27.576 12.6822 29.3814 12.6822C29.8327 12.6822 30.7354 12.779 30.9933 12.8112V7.16956H30.9288C27.7694 7.16956 26.2864 8.97488 25.545 10.1677H25.5127V7.49194H19.1295V24.7715Z" fill="#0D223F"/>
<path d="M41.1991 25.1261C44.0684 25.1261 46.7442 24.4813 48.9364 23.0628L46.6475 19.1943C45.5191 19.8713 43.4881 20.774 41.6827 20.774C39.8129 20.774 38.5555 20.2259 38.2332 17.9693H49.291V17.0021C49.291 8.3946 44.3907 7.16956 40.9734 7.16956C37.4594 7.16956 31.8821 9.23279 31.8821 16.1639C31.8821 23.1596 36.46 25.1261 41.1991 25.1261ZM38.2976 14.3264C38.6845 12.3599 39.6839 11.6184 40.9412 11.6184C42.4564 11.6184 43.3913 12.2631 43.6493 14.3264H38.2976Z" fill="#0D223F"/>
<path d="M56.9918 25.0294C59.5387 25.0294 61.0861 23.7398 62.1177 22.1924C62.1177 23.0628 62.2467 24.4168 62.5046 24.7715H69.0168C68.63 23.901 68.501 22.6438 68.501 20.5805V0.915405H62.1177V9.55516C60.9249 7.84655 59.3775 7.16956 57.0563 7.16956C53.1231 7.16956 50.5441 10.3934 50.5441 16.3251C50.5441 22.2569 53.0909 25.0294 56.9918 25.0294ZM59.5387 20.2904C57.4109 20.2904 56.9273 18.4206 56.9273 16.2929C56.9273 13.8428 57.5721 12.3921 59.4742 12.3921C60.5703 12.3921 61.2473 12.7145 62.1177 13.4882V19.0331C61.6019 19.5812 60.5381 20.2904 59.5387 20.2904Z" fill="#0D223F"/>
<path d="M80.0342 25.1261C82.9034 25.1261 85.5792 24.4813 87.7714 23.0628L85.4825 19.1943C84.3541 19.8713 82.3231 20.774 80.5177 20.774C78.6479 20.774 77.3906 20.2259 77.0682 17.9693H88.1261V17.0021C88.1261 8.3946 83.2258 7.16956 79.8085 7.16956C76.2945 7.16956 70.7172 9.23279 70.7172 16.1639C70.7172 23.1596 75.2951 25.1261 80.0342 25.1261ZM77.1327 14.3264C77.5195 12.3599 78.5189 11.6184 79.7762 11.6184C81.2915 11.6184 82.2264 12.2631 82.4843 14.3264H77.1327Z" fill="#0D223F"/>
<path d="M90.314 24.7715H96.6973V14.2619C97.5355 13.5849 98.7606 12.6822 100.566 12.6822C101.017 12.6822 101.92 12.779 102.178 12.8112V7.16956H102.113C98.954 7.16956 97.471 8.97488 96.7295 10.1677H96.6973V7.49194H90.314V24.7715Z" fill="#0D223F"/>
<path d="M104.163 5.81557H110.546V0.915405H104.163V5.81557ZM104.163 24.7715H110.546V7.49194H104.163V24.7715Z" fill="#0D223F"/>
<path d="M121.81 25.1261C126.807 25.1261 129 22.2891 129.999 19.7101L124.712 17.937C124.132 20.1937 122.939 20.7095 121.907 20.7095C119.779 20.7095 119.328 18.7107 119.328 16.1962C119.328 13.4882 120.07 11.7473 121.972 11.7473C123.165 11.7473 124.035 12.2309 124.583 14.3264L129.935 12.65C128.935 9.74859 127.13 7.16956 122.036 7.16956C118.232 7.16956 112.945 8.97488 112.945 16.1639C112.945 23.2563 117.748 25.1261 121.81 25.1261Z" fill="#0D223F"/>
<path d="M131.755 24.7715H138.138V20.4193L139.589 18.7107L142.78 24.7715H149.325L143.522 14.0685L149.131 7.49194H142.361L138.138 12.8757V0.915405H131.755V24.7715Z" fill="#0D223F"/>
<path d="M0.762207 55.2184H7.20995V46.5141H14.2057V41.485H7.20995V36.7138H17.2362V31.3623H0.762207V55.2184Z" fill="#0D223F"/>
<path d="M19.2906 36.2625H25.6739V31.3623H19.2906V36.2625ZM19.2906 55.2184H25.6739V37.9389H19.2906V55.2184Z" fill="#0D223F"/>
<path d="M36.2935 55.573C40.2911 55.573 44.2243 53.9933 44.2243 49.4155C44.2243 45.2246 40.0332 44.5799 37.0995 44.193C35.3586 43.9673 34.4559 43.6772 34.4559 42.8713C34.4559 42.0975 35.1652 41.7752 36.2291 41.7752C37.6153 41.7752 39.4529 42.4199 41.3228 43.516L43.6762 40.0021C41.5807 38.4869 39.3885 37.6165 35.6165 37.6165C31.7156 37.6165 28.5563 39.583 28.5563 43.4515C28.5563 47.9326 32.715 48.6096 35.6488 49.0287C37.5186 49.2866 38.3246 49.5767 38.3246 50.4794C38.3246 51.2853 37.3574 51.6077 36.2613 51.6077C34.2947 51.6077 31.6834 50.8018 30.0715 49.5123L27.718 53.0907C29.6201 54.4769 32.2637 55.573 36.2935 55.573Z" fill="#0D223F"/>
<path d="M46.2528 55.2184H52.636V44.0641C53.4743 43.3871 54.4092 42.839 55.5053 42.839C56.5692 42.839 56.956 43.516 56.956 44.7088V55.2184H63.3393V42.6134C63.3393 38.906 61.0826 37.6165 58.3745 37.6165C55.1829 37.6165 53.3775 39.4218 52.636 40.6146V31.3623H46.2528V55.2184Z" fill="#0D223F"/>
<path d="M74.7135 55.573C77.5828 55.573 80.2586 54.9282 82.4508 53.5098L80.1619 49.6412C79.0335 50.3182 77.0025 51.2209 75.1971 51.2209C73.3273 51.2209 72.0699 50.6728 71.7476 48.4162H82.8054V47.449C82.8054 38.8415 77.9051 37.6165 74.4878 37.6165C70.9738 37.6165 65.3965 39.6797 65.3965 46.6109C65.3965 53.6065 69.9744 55.573 74.7135 55.573ZM71.812 44.7733C72.1989 42.8068 73.1983 42.0653 74.4556 42.0653C75.9708 42.0653 76.9057 42.7101 77.1637 44.7733H71.812Z" fill="#0D223F"/>
<path d="M84.9934 55.2184H91.3766V44.7088C92.2148 44.0318 93.4399 43.1292 95.2453 43.1292C95.6966 43.1292 96.5993 43.2259 96.8572 43.2581V37.6165H96.7927C93.6334 37.6165 92.1504 39.4218 91.4089 40.6146H91.3766V37.9389H84.9934V55.2184Z" fill="#0D223F"/>
<path d="M111.258 55.4763C113.451 55.4763 115.288 54.5414 116.9 52.9617C116.9 53.9289 117.061 54.5091 117.255 55.2184H118.802C118.48 54.3479 118.383 53.0907 118.383 51.0274V42.7423C118.383 39.7442 117.029 37.9389 113.999 37.9389C111.355 37.9389 109.421 39.1639 107.68 41.0337L108.712 41.9041C110.066 40.4856 111.71 39.2928 113.934 39.2928C115.868 39.2928 116.9 40.4856 116.9 42.7423V44.0963C109.743 45.5792 107.261 48.1583 107.261 51.3498C107.261 53.8321 108.615 55.4763 111.258 55.4763ZM111.516 54.1545C109.775 54.1545 108.744 53.2519 108.744 51.2531C108.744 48.9642 110.42 46.7076 116.9 45.3213V51.4465C115.449 53.0584 113.515 54.1545 111.516 54.1545Z" fill="#0D223F"/>
<path d="M122.575 55.2184H124.058V42.1943C125.638 40.5824 127.54 39.2928 129.41 39.2928C131.505 39.2928 132.311 40.4534 132.311 42.8068V55.2184H133.794V42.6134C133.794 39.5507 132.472 37.9389 129.571 37.9389C127.443 37.9389 125.348 39.454 124.058 40.7758V38.2935H122.575V55.2184Z" fill="#0D223F"/>
<path d="M143.057 55.5085C145.217 55.5085 146.7 54.2835 147.86 52.994C147.86 53.6065 148.021 54.6059 148.183 55.2184H149.762C149.44 54.3479 149.343 53.0907 149.343 51.0274V31.3623H147.86V40.5501C146.7 39.0994 145.055 37.9389 143.089 37.9389C139.768 37.9389 137.157 40.6146 137.157 46.772C137.157 52.9295 139.736 55.5085 143.057 55.5085ZM143.186 54.1545C140.639 54.1545 138.672 51.8979 138.672 46.7398C138.672 41.5173 140.574 39.2928 143.121 39.2928C144.862 39.2928 146.377 40.3889 147.86 42.1298V51.4788C146.409 53.0907 145.055 54.1545 143.186 54.1545Z" fill="#0D223F"/>
<path d="M0.762207 86.5608H7.14547V78.9526H9.69233C14.3669 78.9526 20.0087 77.8888 20.0087 70.8287C20.0087 63.7686 14.786 62.7047 9.69233 62.7047H0.762207V86.5608ZM7.14547 74.0525V67.9273H9.918C12.9162 67.9273 13.7222 69.1846 13.7222 70.9899C13.7222 72.7952 12.9162 74.0525 9.918 74.0525H7.14547Z" fill="#0D223F"/>
<path d="M25.9545 86.8187C28.5013 86.8187 30.2745 85.8193 31.693 84.0462C31.693 85.0134 31.8542 85.8516 32.0798 86.5608H38.3986C38.044 85.6904 37.915 84.4331 37.915 82.3699V76.2124C37.915 71.3445 35.884 68.9589 30.7903 68.9589C26.1479 68.9589 23.4399 70.5385 21.8602 71.957L24.4715 75.5677C25.9222 74.536 27.7921 73.6979 29.7909 73.6979C31.2739 73.6979 31.693 74.3104 31.693 75.1486V75.3742C24.6005 75.6966 21.022 78.05 21.022 81.9185C21.022 85.3035 23.4721 86.8187 25.9545 86.8187ZM28.6625 82.0797C27.8566 82.0797 27.244 81.6929 27.244 80.8547C27.244 79.5329 28.5981 78.727 31.693 78.6303V81.0803C31.1449 81.5961 30.2422 82.0797 28.6625 82.0797Z" fill="#0D223F"/>
<path d="M40.8767 86.5608H47.26V76.0512C48.0982 75.3742 49.3233 74.4716 51.1286 74.4716C51.58 74.4716 52.4827 74.5683 52.7406 74.6005V68.9589H52.6761C49.5167 68.9589 48.0337 70.7642 47.2922 71.957H47.26V69.2813H40.8767V86.5608Z" fill="#0D223F"/>
<path d="M62.4306 86.7865C63.6879 86.7865 66.0091 86.593 66.3315 86.4963V82.0475C66.0413 82.1442 65.2031 82.2409 64.655 82.2409C62.8497 82.2409 62.3983 81.7896 62.3983 79.952V73.8591H66.815V69.2813H62.3983V63.4784H56.0151V69.2813H53.2103V73.8591H56.0151V81.3705C56.0151 84.7232 56.5631 86.7865 62.4306 86.7865Z" fill="#0D223F"/>
<path d="M68.8509 86.5608H75.2341V75.4065C76.0723 74.7295 77.0072 74.1814 78.1034 74.1814C79.1672 74.1814 79.5541 74.8584 79.5541 76.0512V86.5608H85.9374V73.9558C85.9374 70.2484 83.6807 68.9589 80.9726 68.9589C77.781 68.9589 75.9756 70.7642 75.2341 71.957V69.2813H68.8509V86.5608Z" fill="#0D223F"/>
<path d="M97.2793 86.9154C100.149 86.9154 102.824 86.2706 105.017 84.8522L102.728 80.9836C101.599 81.6606 99.5683 82.5633 97.7629 82.5633C95.8931 82.5633 94.6358 82.0152 94.3134 79.7586H105.371V78.7914C105.371 70.1839 100.471 68.9589 97.0537 68.9589C93.5397 68.9589 87.9624 71.0221 87.9624 77.9533C87.9624 84.9489 92.5403 86.9154 97.2793 86.9154ZM94.3779 76.1157C94.7647 74.1492 95.7641 73.4077 97.0214 73.4077C98.5367 73.4077 99.4716 74.0525 99.7295 76.1157H94.3779Z" fill="#0D223F"/>
<path d="M107.559 86.5608H113.942V76.0512C114.781 75.3742 116.006 74.4716 117.811 74.4716C118.262 74.4716 119.165 74.5683 119.423 74.6005V68.9589H119.359C116.199 68.9589 114.716 70.7642 113.975 71.957H113.942V69.2813H107.559V86.5608Z" fill="#0D223F"/>
<path d="M128.533 86.9154C132.53 86.9154 136.463 85.3357 136.463 80.758C136.463 76.567 132.272 75.9223 129.339 75.5354C127.598 75.3098 126.695 75.0196 126.695 74.2137C126.695 73.44 127.404 73.1176 128.468 73.1176C129.855 73.1176 131.692 73.7623 133.562 74.8584L135.915 71.3445C133.82 69.8293 131.628 68.9589 127.856 68.9589C123.955 68.9589 120.795 70.9254 120.795 74.7939C120.795 79.275 124.954 79.952 127.888 80.3711C129.758 80.629 130.564 80.9192 130.564 81.8218C130.564 82.6278 129.597 82.9501 128.501 82.9501C126.534 82.9501 123.923 82.1442 122.311 80.8547L119.957 84.4331C121.859 85.8193 124.503 86.9154 128.533 86.9154Z" fill="#0D223F"/>
</svg>
