<svg width="459" height="25" viewBox="0 0 459 25" fill="none" xmlns="http://www.w3.org/2000/svg">
<path d="M-0.000152588 24.5639H6.39133V15.9354H13.3261V10.95H6.39133V6.22033H16.3301V0.915405H-0.000152588V24.5639Z" fill="#0D223F"/>
<path d="M18.5264 24.5639H24.854V14.1458C25.6849 13.4747 26.8992 12.5799 28.6888 12.5799C29.1362 12.5799 30.0311 12.6757 30.2867 12.7077V7.11514H30.2228C27.091 7.11514 25.6209 8.90475 24.8859 10.0872H24.854V7.43471H18.5264V24.5639Z" fill="#0D223F"/>
<path d="M40.7231 24.9154C43.5673 24.9154 46.2197 24.2763 48.3928 22.8701L46.1238 19.0352C45.0053 19.7064 42.992 20.6012 41.2024 20.6012C39.3489 20.6012 38.1025 20.0579 37.783 17.8209H48.7444V16.8621C48.7444 8.32952 43.8868 7.11514 40.4993 7.11514C37.016 7.11514 31.4874 9.16041 31.4874 16.0313C31.4874 22.966 36.0253 24.9154 40.7231 24.9154ZM37.8469 14.2097C38.2304 12.2603 39.2211 11.5253 40.4674 11.5253C41.9694 11.5253 42.8962 12.1644 43.1518 14.2097H37.8469Z" fill="#0D223F"/>
<path d="M56.6975 24.8195C59.2221 24.8195 60.7561 23.5412 61.7787 22.0073C61.7787 22.8701 61.9066 24.2123 62.1622 24.5639H68.6176C68.2341 23.701 68.1063 22.4547 68.1063 20.4094V0.915405H61.7787V9.47999C60.5963 7.78624 59.0624 7.11514 56.7614 7.11514C52.8626 7.11514 50.306 10.3109 50.306 16.191C50.306 22.0712 52.8307 24.8195 56.6975 24.8195ZM59.2221 20.1218C57.113 20.1218 56.6336 18.2683 56.6336 16.1591C56.6336 13.7303 57.2727 12.2922 59.1582 12.2922C60.2448 12.2922 60.9159 12.6118 61.7787 13.3788V18.8755C61.2674 19.4187 60.2128 20.1218 59.2221 20.1218Z" fill="#0D223F"/>
<path d="M79.8584 24.9154C82.7026 24.9154 85.355 24.2763 87.5281 22.8701L85.2592 19.0352C84.1407 19.7064 82.1274 20.6012 80.3377 20.6012C78.4842 20.6012 77.2379 20.0579 76.9183 17.8209H87.8797V16.8621C87.8797 8.32952 83.0222 7.11514 79.6347 7.11514C76.1513 7.11514 70.6227 9.16041 70.6227 16.0313C70.6227 22.966 75.1606 24.9154 79.8584 24.9154ZM76.9822 14.2097C77.3657 12.2603 78.3564 11.5253 79.6027 11.5253C81.1047 11.5253 82.0315 12.1644 82.2871 14.2097H76.9822Z" fill="#0D223F"/>
<path d="M90.3681 24.5639H96.6957V14.1458C97.5266 13.4747 98.7409 12.5799 100.531 12.5799C100.978 12.5799 101.873 12.6757 102.128 12.7077V7.11514H102.065C98.9327 7.11514 97.4627 8.90475 96.7276 10.0872H96.6957V7.43471H90.3681V24.5639Z" fill="#0D223F"/>
<path d="M104.416 5.77293H110.743V0.915405H104.416V5.77293ZM104.416 24.5639H110.743V7.43471H104.416V24.5639Z" fill="#0D223F"/>
<path d="M122.229 24.9154C127.182 24.9154 129.355 22.1032 130.346 19.5466L125.105 17.7889C124.53 20.0259 123.347 20.5372 122.325 20.5372C120.216 20.5372 119.768 18.5559 119.768 16.0632C119.768 13.3788 120.503 11.6531 122.389 11.6531C123.571 11.6531 124.434 12.1324 124.977 14.2097L130.282 12.5479C129.291 9.67173 127.502 7.11514 122.453 7.11514C118.682 7.11514 113.441 8.90475 113.441 16.0313C113.441 23.0619 118.202 24.9154 122.229 24.9154Z" fill="#0D223F"/>
<path d="M132.406 24.5639H138.733V20.2496L140.171 18.5559L143.335 24.5639H149.823L144.07 13.954L149.631 7.43471H142.92L138.733 12.7716V0.915405H132.406V24.5639Z" fill="#0D223F"/>
<path d="M161.472 24.5639H167.864V15.9354H174.798V10.95H167.864V6.22033H177.802V0.915405H161.472V24.5639Z" fill="#0D223F"/>
<path d="M180.158 5.77293H186.486V0.915405H180.158V5.77293ZM180.158 24.5639H186.486V7.43471H180.158V24.5639Z" fill="#0D223F"/>
<path d="M197.333 24.9154C201.295 24.9154 205.194 23.3495 205.194 18.8115C205.194 14.6571 201.04 14.0179 198.131 13.6344C196.406 13.4107 195.511 13.1231 195.511 12.3242C195.511 11.5572 196.214 11.2376 197.269 11.2376C198.643 11.2376 200.464 11.8768 202.318 12.9633L204.651 9.47999C202.574 7.97799 200.4 7.11514 196.661 7.11514C192.795 7.11514 189.663 9.06454 189.663 12.8994C189.663 17.3415 193.785 18.0126 196.693 18.4281C198.547 18.6837 199.346 18.9713 199.346 19.8661C199.346 20.6651 198.387 20.9846 197.301 20.9846C195.351 20.9846 192.763 20.1857 191.165 18.9074L188.832 22.4547C190.717 23.8289 193.338 24.9154 197.333 24.9154Z" fill="#0D223F"/>
<path d="M207.524 24.5639H213.852V13.5066C214.683 12.8355 215.61 12.2922 216.696 12.2922C217.751 12.2922 218.134 12.9633 218.134 14.1458V24.5639H224.462V12.0685C224.462 8.39343 222.225 7.11514 219.54 7.11514C216.377 7.11514 214.587 8.90475 213.852 10.0872V0.915405H207.524V24.5639Z" fill="#0D223F"/>
<path d="M236.056 24.9154C238.901 24.9154 241.553 24.2763 243.726 22.8701L241.457 19.0352C240.339 19.7064 238.325 20.6012 236.536 20.6012C234.682 20.6012 233.436 20.0579 233.116 17.8209H244.078V16.8621C244.078 8.32952 239.22 7.11514 235.833 7.11514C232.349 7.11514 226.821 9.16041 226.821 16.0313C226.821 22.966 231.359 24.9154 236.056 24.9154ZM233.18 14.2097C233.564 12.2603 234.554 11.5253 235.801 11.5253C237.303 11.5253 238.229 12.1644 238.485 14.2097H233.18Z" fill="#0D223F"/>
<path d="M246.566 24.5639H252.894V14.1458C253.725 13.4747 254.939 12.5799 256.729 12.5799C257.176 12.5799 258.071 12.6757 258.326 12.7077V7.11514H258.262C255.131 7.11514 253.661 8.90475 252.926 10.0872H252.894V7.43471H246.566V24.5639Z" fill="#0D223F"/>
<path d="M273.241 24.8195C275.414 24.8195 277.236 23.8928 278.834 22.3269C278.834 23.2856 278.993 23.8608 279.185 24.5639H280.719C280.399 23.701 280.304 22.4547 280.304 20.4094V12.1964C280.304 9.22433 278.961 7.43471 275.957 7.43471C273.337 7.43471 271.419 8.64909 269.694 10.5026L270.716 11.3655C272.059 9.95935 273.688 8.77692 275.893 8.77692C277.811 8.77692 278.834 9.95935 278.834 12.1964V13.5386C271.739 15.0086 269.278 17.5652 269.278 20.729C269.278 23.1897 270.621 24.8195 273.241 24.8195ZM273.497 23.5093C271.771 23.5093 270.748 22.6145 270.748 20.6331C270.748 18.3641 272.41 16.1271 278.834 14.753V20.8249C277.396 22.4227 275.478 23.5093 273.497 23.5093Z" fill="#0D223F"/>
<path d="M284.779 24.5639H286.249V11.6531C287.815 10.0552 289.7 8.77692 291.554 8.77692C293.631 8.77692 294.43 9.92739 294.43 12.2603V24.5639H295.9V12.0685C295.9 9.03258 294.59 7.43471 291.713 7.43471C289.604 7.43471 287.527 8.93671 286.249 10.247V7.78624H284.779V24.5639Z" fill="#0D223F"/>
<path d="M305.401 24.8515C307.542 24.8515 309.012 23.6371 310.163 22.3588C310.163 22.966 310.322 23.9567 310.482 24.5639H312.048C311.728 23.701 311.633 22.4547 311.633 20.4094V0.915405H310.163V10.0233C309.012 8.58518 307.382 7.43471 305.433 7.43471C302.141 7.43471 299.553 10.0872 299.553 16.191C299.553 22.2949 302.109 24.8515 305.401 24.8515ZM305.529 23.5093C303.004 23.5093 301.055 21.2723 301.055 16.1591C301.055 10.982 302.94 8.77692 305.465 8.77692C307.191 8.77692 308.693 9.86348 310.163 11.5892V20.8568C308.724 22.4547 307.382 23.5093 305.529 23.5093Z" fill="#0D223F"/>
<path d="M322.008 24.5639H328.336V17.0219H330.86C335.494 17.0219 341.087 15.9673 341.087 8.96867C341.087 1.97 335.909 0.915405 330.86 0.915405H322.008V24.5639ZM328.336 12.1644V6.0925H331.084C334.056 6.0925 334.855 7.33884 334.855 9.12845C334.855 10.9181 334.056 12.1644 331.084 12.1644H328.336Z" fill="#0D223F"/>
<path d="M347.3 24.8195C349.825 24.8195 351.582 23.8289 352.988 22.0712C352.988 23.0299 353.148 23.8608 353.372 24.5639H359.636C359.284 23.701 359.156 22.4547 359.156 20.4094V14.3056C359.156 9.47999 357.143 7.11514 352.094 7.11514C347.492 7.11514 344.807 8.68105 343.241 10.0872L345.83 13.6664C347.268 12.6438 349.122 11.8129 351.103 11.8129C352.573 11.8129 352.988 12.4201 352.988 13.251V13.4747C345.958 13.7942 342.411 16.1271 342.411 19.962C342.411 23.3175 344.839 24.8195 347.3 24.8195ZM349.984 20.1218C349.186 20.1218 348.578 19.7383 348.578 18.9074C348.578 17.5972 349.921 16.7982 352.988 16.7024V19.1311C352.445 19.6424 351.55 20.1218 349.984 20.1218Z" fill="#0D223F"/>
<path d="M362.412 24.5639H368.739V14.1458C369.57 13.4747 370.784 12.5799 372.574 12.5799C373.022 12.5799 373.916 12.6757 374.172 12.7077V7.11514H374.108C370.976 7.11514 369.506 8.90475 368.771 10.0872H368.739V7.43471H362.412V24.5639Z" fill="#0D223F"/>
<path d="M384.097 24.7876C385.343 24.7876 387.644 24.5958 387.964 24.5V20.0898C387.676 20.1857 386.845 20.2816 386.302 20.2816C384.512 20.2816 384.065 19.8342 384.065 18.0126V11.9727H388.443V7.43471H384.065V1.68238H377.737V7.43471H374.957V11.9727H377.737V19.4187C377.737 22.7423 378.281 24.7876 384.097 24.7876Z" fill="#0D223F"/>
<path d="M390.781 24.5639H397.108V13.5066C397.939 12.8355 398.866 12.2922 399.953 12.2922C401.007 12.2922 401.391 12.9633 401.391 14.1458V24.5639H407.718V12.0685C407.718 8.39343 405.481 7.11514 402.797 7.11514C399.633 7.11514 397.843 8.90475 397.108 10.0872V7.43471H390.781V24.5639Z" fill="#0D223F"/>
<path d="M419.281 24.9154C422.125 24.9154 424.777 24.2763 426.951 22.8701L424.682 19.0352C423.563 19.7064 421.55 20.6012 419.76 20.6012C417.907 20.6012 416.66 20.0579 416.341 17.8209H427.302V16.8621C427.302 8.32952 422.445 7.11514 419.057 7.11514C415.574 7.11514 410.045 9.16041 410.045 16.0313C410.045 22.966 414.583 24.9154 419.281 24.9154ZM416.405 14.2097C416.788 12.2603 417.779 11.5253 419.025 11.5253C420.527 11.5253 421.454 12.1644 421.71 14.2097H416.405Z" fill="#0D223F"/>
<path d="M429.791 24.5639H436.118V14.1458C436.949 13.4747 438.163 12.5799 439.953 12.5799C440.4 12.5799 441.295 12.6757 441.551 12.7077V7.11514H441.487C438.355 7.11514 436.885 8.90475 436.15 10.0872H436.118V7.43471H429.791V24.5639Z" fill="#0D223F"/>
<path d="M450.901 24.9154C454.863 24.9154 458.762 23.3495 458.762 18.8115C458.762 14.6571 454.608 14.0179 451.7 13.6344C449.974 13.4107 449.079 13.1231 449.079 12.3242C449.079 11.5572 449.782 11.2376 450.837 11.2376C452.211 11.2376 454.033 11.8768 455.886 12.9633L458.219 9.47999C456.142 7.97799 453.969 7.11514 450.23 7.11514C446.363 7.11514 443.231 9.06454 443.231 12.8994C443.231 17.3415 447.353 18.0126 450.262 18.4281C452.115 18.6837 452.914 18.9713 452.914 19.8661C452.914 20.6651 451.955 20.9846 450.869 20.9846C448.919 20.9846 446.331 20.1857 444.733 18.9074L442.4 22.4547C444.285 23.8289 446.906 24.9154 450.901 24.9154Z" fill="#0D223F"/>
</svg>
