<svg width="76" height="25" viewBox="0 0 76 25" fill="none" xmlns="http://www.w3.org/2000/svg">
<path d="M0.762207 24.4779H7.01221V16.0404H13.7935V11.1654H7.01221V6.5404H16.731V1.35291H0.762207V24.4779Z" fill="#0D223F"/>
<path d="M19.3474 24.4779H25.5974V16.0404H32.3787V11.1654H25.5974V6.5404H35.3162V1.35291H19.3474V24.4779Z" fill="#0D223F"/>
<path d="M43.3701 24.9154C45.8389 24.9154 47.7764 23.9467 49.2139 22.3217C50.8701 23.9154 52.3389 24.6967 54.1201 24.7904V23.3217C52.8701 23.3217 51.5576 22.5717 50.0889 21.1342C51.4639 19.0404 52.3076 16.1654 52.6826 13.0092H51.1826C50.9014 15.6967 50.3076 18.2279 49.1514 20.1029C47.9639 18.7279 46.7139 16.9779 45.4951 15.2279C44.7451 14.1029 44.0576 13.0404 43.5264 12.0404C46.1826 10.1654 48.4326 8.1654 48.4326 5.10291C48.4326 2.75915 47.2139 0.915405 44.5576 0.915405C41.6514 0.915405 40.1826 3.19665 40.1826 6.1029C40.1826 8.0404 40.7139 9.88416 41.6514 11.7592C39.1514 13.6029 36.9639 15.8217 36.9639 19.1029C36.9639 22.7904 39.0576 24.9154 43.3701 24.9154ZM42.9014 10.8217C42.0889 9.13415 41.6826 7.63415 41.6826 5.94665C41.6826 3.88415 42.5576 2.2904 44.5264 2.2904C46.3076 2.2904 46.9326 3.63415 46.9326 5.19665C46.9326 7.63415 45.0889 9.2904 42.9014 10.8217ZM43.4326 23.5404C39.9951 23.5404 38.4951 21.7592 38.4951 19.0717C38.4951 16.5404 40.0889 14.5717 42.2764 12.9467C42.8701 13.9467 43.5264 14.9154 44.2451 15.9779C45.6826 18.0092 46.9951 19.8529 48.2764 21.3217C47.0576 22.7592 45.4326 23.5404 43.4326 23.5404Z" fill="#0D223F"/>
<path d="M57.0061 24.4779H63.1936V17.1029H65.6623C70.1936 17.1029 75.6623 16.0717 75.6623 9.2279C75.6623 2.38415 70.5998 1.35291 65.6623 1.35291H57.0061V24.4779ZM63.1936 12.3529V6.4154H65.8811C68.7873 6.4154 69.5686 7.63415 69.5686 9.38415C69.5686 11.1342 68.7873 12.3529 65.8811 12.3529H63.1936Z" fill="#0D223F"/>
</svg>
