<svg width="89" height="29" viewBox="0 0 89 29" fill="none" xmlns="http://www.w3.org/2000/svg">
<path d="M0 27.6977H7.34686V17.7794H15.3182V12.0489H7.34686V6.61218H18.7712V0.51428H0V27.6977Z" fill="#0D223F"/>
<path d="M21.8469 27.6977H29.1937V17.7794H37.1651V12.0489H29.1937V6.61218H40.6181V0.51428H21.8469V27.6977Z" fill="#0D223F"/>
<path d="M50.0855 28.212C52.9875 28.212 55.2651 27.0732 56.9548 25.163C58.9018 27.0365 60.6283 27.9548 62.7221 28.065V26.3385C61.2528 26.3385 59.7099 25.4569 57.9834 23.7671C59.5997 21.3059 60.5915 17.9263 61.0323 14.2162H59.2691C58.9385 17.3753 58.2405 20.3508 56.8814 22.5549C55.4855 20.9386 54.0161 18.8814 52.5835 16.8243C51.7018 15.5019 50.8937 14.2529 50.2692 13.0774C53.3916 10.8734 56.0365 8.52236 56.0365 4.9224C56.0365 2.16732 54.6038 0 51.4814 0C48.0651 0 46.3386 2.6816 46.3386 6.0979C46.3386 8.37542 46.9631 10.5427 48.0651 12.7468C45.1264 14.9141 42.555 17.5223 42.555 21.3794C42.555 25.714 45.0162 28.212 50.0855 28.212ZM49.5345 11.6448C48.5794 9.66112 48.1019 7.89788 48.1019 5.91422C48.1019 3.48976 49.1304 1.61631 51.4447 1.61631C53.5385 1.61631 54.2732 3.19588 54.2732 5.0326C54.2732 7.89788 52.1059 9.8448 49.5345 11.6448ZM50.159 26.5956C46.1182 26.5956 44.355 24.5018 44.355 21.3426C44.355 18.3672 46.2284 16.0529 48.7998 14.1427C49.4978 15.3182 50.2692 16.457 51.1141 17.7059C52.8039 20.0937 54.3467 22.261 55.8528 23.9875C54.4202 25.6773 52.51 26.5956 50.159 26.5956Z" fill="#0D223F"/>
<path d="M66.1146 27.6977H73.388V19.0284H76.29C81.6165 19.0284 88.045 17.8161 88.045 9.77133C88.045 1.72651 82.094 0.51428 76.29 0.51428H66.1146V27.6977ZM73.388 13.4448V6.46524H76.5471C79.9634 6.46524 80.8818 7.89788 80.8818 9.955C80.8818 12.0121 79.9634 13.4448 76.5471 13.4448H73.388Z" fill="#0D223F"/>
</svg>
