<svg width="167" height="97" viewBox="0 0 167 97" fill="none" xmlns="http://www.w3.org/2000/svg">
<path d="M0 26.64H7.2V16.92H15.012V11.304H7.2V5.976H18.396V0H0V26.64Z" fill="white"/>
<path d="M20.5102 26.64H27.6382V14.904C28.5742 14.148 29.9422 13.14 31.9582 13.14C32.4622 13.14 33.4702 13.248 33.7582 13.284V6.984H33.6862C30.1582 6.984 28.5022 9 27.6742 10.332H27.6382V7.344H20.5102V26.64Z" fill="white"/>
<path d="M45.1547 27.036C48.3587 27.036 51.3467 26.316 53.7947 24.732L51.2387 20.412C49.9787 21.168 47.7107 22.176 45.6947 22.176C43.6067 22.176 42.2027 21.564 41.8427 19.044H54.1907V17.964C54.1907 8.352 48.7187 6.984 44.9027 6.984C40.9787 6.984 34.7507 9.288 34.7507 17.028C34.7507 24.84 39.8627 27.036 45.1547 27.036ZM41.9147 14.976C42.3467 12.78 43.4627 11.952 44.8667 11.952C46.5587 11.952 47.6027 12.672 47.8907 14.976H41.9147Z" fill="white"/>
<path d="M62.7899 26.928C65.6339 26.928 67.3619 25.488 68.5139 23.76C68.5139 24.732 68.6579 26.244 68.9459 26.64H76.2179C75.7859 25.668 75.6419 24.264 75.6419 21.96V0H68.5139V9.648C67.1819 7.74 65.4539 6.984 62.8619 6.984C58.4699 6.984 55.5899 10.584 55.5899 17.208C55.5899 23.832 58.4339 26.928 62.7899 26.928ZM65.6339 21.636C63.2579 21.636 62.7179 19.548 62.7179 17.172C62.7179 14.436 63.4379 12.816 65.5619 12.816C66.7859 12.816 67.5419 13.176 68.5139 14.04V20.232C67.9379 20.844 66.7499 21.636 65.6339 21.636Z" fill="white"/>
<path d="M88.5206 27.036C91.7246 27.036 94.7126 26.316 97.1606 24.732L94.6046 20.412C93.3446 21.168 91.0766 22.176 89.0606 22.176C86.9726 22.176 85.5686 21.564 85.2086 19.044H97.5566V17.964C97.5566 8.352 92.0846 6.984 88.2686 6.984C84.3446 6.984 78.1166 9.288 78.1166 17.028C78.1166 24.84 83.2286 27.036 88.5206 27.036ZM85.2806 14.976C85.7126 12.78 86.8286 11.952 88.2326 11.952C89.9246 11.952 90.9686 12.672 91.2566 14.976H85.2806Z" fill="white"/>
<path d="M99.9998 26.64H107.128V14.904C108.064 14.148 109.432 13.14 111.448 13.14C111.952 13.14 112.96 13.248 113.248 13.284V6.984H113.176C109.648 6.984 107.992 9 107.164 10.332H107.128V7.344H99.9998V26.64Z" fill="white"/>
<path d="M115.464 5.472H122.592V0H115.464V5.472ZM115.464 26.64H122.592V7.344H115.464V26.64Z" fill="white"/>
<path d="M135.171 27.036C140.751 27.036 143.199 23.868 144.315 20.988L138.411 19.008C137.763 21.528 136.431 22.104 135.279 22.104C132.903 22.104 132.399 19.872 132.399 17.064C132.399 14.04 133.227 12.096 135.351 12.096C136.683 12.096 137.655 12.636 138.267 14.976L144.243 13.104C143.127 9.864 141.111 6.984 135.423 6.984C131.175 6.984 125.271 9 125.271 17.028C125.271 24.948 130.635 27.036 135.171 27.036Z" fill="white"/>
<path d="M146.275 26.64H153.403V21.78L155.023 19.872L158.587 26.64H165.895L159.415 14.688L165.679 7.344H158.119L153.403 13.356V0H146.275V26.64Z" fill="white"/>
<path d="M0 60.64H7.2V50.92H15.012V45.304H7.2V39.976H18.396V34H0V60.64Z" fill="white"/>
<path d="M20.6902 39.472H27.8182V34H20.6902V39.472ZM20.6902 60.64H27.8182V41.344H20.6902V60.64Z" fill="white"/>
<path d="M39.6768 61.036C44.1408 61.036 48.5328 59.272 48.5328 54.16C48.5328 49.48 43.8528 48.76 40.5768 48.328C38.6328 48.076 37.6248 47.752 37.6248 46.852C37.6248 45.988 38.4168 45.628 39.6048 45.628C41.1528 45.628 43.2048 46.348 45.2928 47.572L47.9208 43.648C45.5808 41.956 43.1328 40.984 38.9208 40.984C34.5648 40.984 31.0368 43.18 31.0368 47.5C31.0368 52.504 35.6808 53.26 38.9568 53.728C41.0448 54.016 41.9448 54.34 41.9448 55.348C41.9448 56.248 40.8648 56.608 39.6408 56.608C37.4448 56.608 34.5288 55.708 32.7288 54.268L30.1008 58.264C32.2248 59.812 35.1768 61.036 39.6768 61.036Z" fill="white"/>
<path d="M50.798 60.64H57.926V48.184C58.862 47.428 59.906 46.816 61.13 46.816C62.318 46.816 62.75 47.572 62.75 48.904V60.64H69.878V46.564C69.878 42.424 67.358 40.984 64.334 40.984C60.77 40.984 58.754 43 57.926 44.332V34H50.798V60.64Z" fill="white"/>
<path d="M82.5792 61.036C85.7832 61.036 88.7712 60.316 91.2192 58.732L88.6632 54.412C87.4032 55.168 85.1352 56.176 83.1192 56.176C81.0312 56.176 79.6272 55.564 79.2672 53.044H91.6152V51.964C91.6152 42.352 86.1432 40.984 82.3272 40.984C78.4032 40.984 72.1752 43.288 72.1752 51.028C72.1752 58.84 77.2872 61.036 82.5792 61.036ZM79.3392 48.976C79.7712 46.78 80.8872 45.952 82.2912 45.952C83.9832 45.952 85.0272 46.672 85.3152 48.976H79.3392Z" fill="white"/>
<path d="M94.0584 60.64H101.186V48.904C102.122 48.148 103.49 47.14 105.506 47.14C106.01 47.14 107.018 47.248 107.306 47.284V40.984H107.234C103.706 40.984 102.05 43 101.222 44.332H101.186V41.344H94.0584V60.64Z" fill="white"/>
<path d="M123.388 60.928C125.836 60.928 127.888 59.884 129.688 58.12C129.688 59.2 129.868 59.848 130.084 60.64H131.812C131.452 59.668 131.344 58.264 131.344 55.96V46.708C131.344 43.36 129.832 41.344 126.448 41.344C123.496 41.344 121.336 42.712 119.392 44.8L120.544 45.772C122.056 44.188 123.892 42.856 126.376 42.856C128.536 42.856 129.688 44.188 129.688 46.708V48.22C121.696 49.876 118.924 52.756 118.924 56.32C118.924 59.092 120.436 60.928 123.388 60.928ZM123.676 59.452C121.732 59.452 120.58 58.444 120.58 56.212C120.58 53.656 122.452 51.136 129.688 49.588V56.428C128.068 58.228 125.908 59.452 123.676 59.452Z" fill="white"/>
<path d="M136.025 60.64H137.681V46.096C139.445 44.296 141.569 42.856 143.657 42.856C145.997 42.856 146.897 44.152 146.897 46.78V60.64H148.553V46.564C148.553 43.144 147.077 41.344 143.837 41.344C141.461 41.344 139.121 43.036 137.681 44.512V41.74H136.025V60.64Z" fill="white"/>
<path d="M158.896 60.964C161.308 60.964 162.964 59.596 164.26 58.156C164.26 58.84 164.44 59.956 164.62 60.64H166.384C166.024 59.668 165.916 58.264 165.916 55.96V34H164.26V44.26C162.964 42.64 161.128 41.344 158.932 41.344C155.224 41.344 152.308 44.332 152.308 51.208C152.308 58.084 155.188 60.964 158.896 60.964ZM159.04 59.452C156.196 59.452 154 56.932 154 51.172C154 45.34 156.124 42.856 158.968 42.856C160.912 42.856 162.604 44.08 164.26 46.024V56.464C162.64 58.264 161.128 59.452 159.04 59.452Z" fill="white"/>
<path d="M0 95.64H7.128V87.144H9.972C15.192 87.144 21.492 85.956 21.492 78.072C21.492 70.188 15.66 69 9.972 69H0V95.64ZM7.128 81.672V74.832H10.224C13.572 74.832 14.472 76.236 14.472 78.252C14.472 80.268 13.572 81.672 10.224 81.672H7.128Z" fill="white"/>
<path d="M28.1315 95.928C30.9755 95.928 32.9555 94.812 34.5395 92.832C34.5395 93.912 34.7195 94.848 34.9715 95.64H42.0275C41.6315 94.668 41.4875 93.264 41.4875 90.96V84.084C41.4875 78.648 39.2195 75.984 33.5315 75.984C28.3475 75.984 25.3235 77.748 23.5595 79.332L26.4755 83.364C28.0955 82.212 30.1835 81.276 32.4155 81.276C34.0715 81.276 34.5395 81.96 34.5395 82.896V83.148C26.6195 83.508 22.6235 86.136 22.6235 90.456C22.6235 94.236 25.3595 95.928 28.1315 95.928ZM31.1555 90.636C30.2555 90.636 29.5715 90.204 29.5715 89.268C29.5715 87.792 31.0835 86.892 34.5395 86.784V89.52C33.9275 90.096 32.9195 90.636 31.1555 90.636Z" fill="white"/>
<path d="M44.7947 95.64H51.9227V83.904C52.8587 83.148 54.2267 82.14 56.2427 82.14C56.7467 82.14 57.7547 82.248 58.0427 82.284V75.984H57.9707C54.4427 75.984 52.7867 78 51.9587 79.332H51.9227V76.344H44.7947V95.64Z" fill="white"/>
<path d="M68.8632 95.892C70.2672 95.892 72.8592 95.676 73.2192 95.568V90.6C72.8952 90.708 71.9592 90.816 71.3472 90.816C69.3312 90.816 68.8272 90.312 68.8272 88.26V81.456H73.7592V76.344H68.8272V69.864H61.6992V76.344H58.5672V81.456H61.6992V89.844C61.6992 93.588 62.3112 95.892 68.8632 95.892Z" fill="white"/>
<path d="M76.0326 95.64H83.1606V83.184C84.0966 82.428 85.1406 81.816 86.3646 81.816C87.5526 81.816 87.9846 82.572 87.9846 83.904V95.64H95.1126V81.564C95.1126 77.424 92.5926 75.984 89.5686 75.984C86.0046 75.984 83.9886 78 83.1606 79.332V76.344H76.0326V95.64Z" fill="white"/>
<path d="M107.778 96.036C110.982 96.036 113.97 95.316 116.418 93.732L113.862 89.412C112.602 90.168 110.334 91.176 108.318 91.176C106.23 91.176 104.826 90.564 104.466 88.044H116.814V86.964C116.814 77.352 111.342 75.984 107.526 75.984C103.602 75.984 97.3738 78.288 97.3738 86.028C97.3738 93.84 102.486 96.036 107.778 96.036ZM104.538 83.976C104.97 81.78 106.086 80.952 107.49 80.952C109.182 80.952 110.226 81.672 110.514 83.976H104.538Z" fill="white"/>
<path d="M119.257 95.64H126.385V83.904C127.321 83.148 128.689 82.14 130.705 82.14C131.209 82.14 132.217 82.248 132.505 82.284V75.984H132.433C128.905 75.984 127.249 78 126.421 79.332H126.385V76.344H119.257V95.64Z" fill="white"/>
<path d="M142.678 96.036C147.142 96.036 151.534 94.272 151.534 89.16C151.534 84.48 146.854 83.76 143.578 83.328C141.634 83.076 140.626 82.752 140.626 81.852C140.626 80.988 141.418 80.628 142.606 80.628C144.154 80.628 146.206 81.348 148.294 82.572L150.922 78.648C148.582 76.956 146.134 75.984 141.922 75.984C137.566 75.984 134.038 78.18 134.038 82.5C134.038 87.504 138.682 88.26 141.958 88.728C144.046 89.016 144.946 89.34 144.946 90.348C144.946 91.248 143.866 91.608 142.642 91.608C140.446 91.608 137.53 90.708 135.73 89.268L133.102 93.264C135.226 94.812 138.178 96.036 142.678 96.036Z" fill="white"/>
</svg>
