<svg width="528" height="28" viewBox="0 0 528 28" fill="none" xmlns="http://www.w3.org/2000/svg">
    <path d="M0 27.1834H7.34686V17.2651H15.3182V11.5346H7.34686V6.0979H18.7712V0H0V27.1834Z" fill="#0D223F" />
    <path d="M21.2959 27.1834H28.5693V15.208C29.5243 14.4366 30.9202 13.408 32.9774 13.408C33.4917 13.408 34.5202 13.5182 34.8141 13.555V7.12646H34.7406C31.1407 7.12646 29.4509 9.18358 28.606 10.5427H28.5693V7.4938H21.2959V27.1834Z" fill="#0D223F" />
    <path d="M46.8104 27.5875C50.0798 27.5875 53.1287 26.8528 55.6267 25.2365L53.0185 20.8284C51.7328 21.5998 49.4186 22.6283 47.3614 22.6283C45.2309 22.6283 43.7982 22.0039 43.4309 19.4325H56.0307V18.3304C56.0307 8.52236 50.4471 7.12646 46.5533 7.12646C42.5492 7.12646 36.1942 9.47745 36.1942 17.3753C36.1942 25.3467 41.4105 27.5875 46.8104 27.5875ZM43.5043 15.2815C43.9451 13.0407 45.0839 12.1958 46.5166 12.1958C48.2431 12.1958 49.3084 12.9305 49.6022 15.2815H43.5043Z" fill="#0D223F" />
    <path d="M65.1727 27.4773C68.0747 27.4773 69.838 26.0079 71.0135 24.2446C71.0135 25.2365 71.1604 26.7793 71.4543 27.1834H78.8746C78.4338 26.1916 78.2869 24.7589 78.2869 22.4079V0H71.0135V9.8448C69.6543 7.89788 67.8911 7.12646 65.2462 7.12646C60.7646 7.12646 57.8258 10.7999 57.8258 17.559C57.8258 24.3181 60.7279 27.4773 65.1727 27.4773ZM68.0747 22.0773C65.6503 22.0773 65.0992 19.9467 65.0992 17.5223C65.0992 14.7305 65.8339 13.0774 68.0013 13.0774C69.2502 13.0774 70.0216 13.4448 71.0135 14.3264V20.6447C70.4257 21.2692 69.2135 22.0773 68.0747 22.0773Z" fill="#0D223F" />
    <path d="M91.7956 27.5875C95.065 27.5875 98.1139 26.8528 100.612 25.2365L98.0037 20.8284C96.718 21.5998 94.4038 22.6283 92.3466 22.6283C90.216 22.6283 88.7834 22.0039 88.4161 19.4325H101.016V18.3304C101.016 8.52236 95.4323 7.12646 91.5385 7.12646C87.5344 7.12646 81.1794 9.47745 81.1794 17.3753C81.1794 25.3467 86.3957 27.5875 91.7956 27.5875ZM88.4895 15.2815C88.9303 13.0407 90.0691 12.1958 91.5017 12.1958C93.2282 12.1958 94.2935 12.9305 94.5874 15.2815H88.4895Z" fill="#0D223F" />
    <path d="M103.876 27.1834H111.15V15.208C112.105 14.4366 113.501 13.408 115.558 13.408C116.072 13.408 117.101 13.5182 117.395 13.555V7.12646H117.321C113.721 7.12646 112.031 9.18358 111.186 10.5427H111.15V7.4938H103.876V27.1834Z" fill="#0D223F" />
    <path d="M120.024 5.58362H127.297V0H120.024V5.58362ZM120.024 27.1834H127.297V7.4938H120.024V27.1834Z" fill="#0D223F" />
    <path d="M140.5 27.5875C146.193 27.5875 148.691 24.3549 149.83 21.4161L143.806 19.3957C143.144 21.9671 141.785 22.5549 140.61 22.5549C138.185 22.5549 137.671 20.2773 137.671 17.4121C137.671 14.3264 138.516 12.3427 140.683 12.3427C142.042 12.3427 143.034 12.8937 143.659 15.2815L149.757 13.3713C148.618 10.0652 146.561 7.12646 140.757 7.12646C136.422 7.12646 130.398 9.18358 130.398 17.3753C130.398 25.4569 135.871 27.5875 140.5 27.5875Z" fill="#0D223F" />
    <path d="M152.198 27.1834H159.471V22.2243L161.124 20.2773L164.761 27.1834H172.218L165.606 14.9876L171.998 7.4938H164.283L159.471 13.6284V0H152.198V27.1834Z" fill="#0D223F" />
    <path d="M185.609 27.1834H192.956V17.2651H200.927V11.5346H192.956V6.0979H204.38V0H185.609V27.1834Z" fill="#0D223F" />
    <path d="M207.088 5.58362H214.362V0H207.088V5.58362ZM207.088 27.1834H214.362V7.4938H207.088V27.1834Z" fill="#0D223F" />
    <path d="M226.83 27.5875C231.385 27.5875 235.866 25.7875 235.866 20.5712C235.866 15.7958 231.091 15.0611 227.748 14.6203C225.764 14.3631 224.736 14.0325 224.736 13.1142C224.736 12.2325 225.544 11.8652 226.756 11.8652C228.336 11.8652 230.43 12.5999 232.56 13.8488L235.242 9.8448C232.854 8.11828 230.356 7.12646 226.058 7.12646C221.613 7.12646 218.013 9.36725 218.013 13.7754C218.013 18.8814 222.752 19.6529 226.095 20.1304C228.225 20.4243 229.144 20.7549 229.144 21.7835C229.144 22.7018 228.042 23.0692 226.793 23.0692C224.552 23.0692 221.577 22.1508 219.74 20.6814L217.058 24.7589C219.226 26.3385 222.238 27.5875 226.83 27.5875Z" fill="#0D223F" />
    <path d="M238.545 27.1834H245.818V14.4733C246.773 13.7019 247.839 13.0774 249.088 13.0774C250.3 13.0774 250.741 13.8488 250.741 15.208V27.1834H258.014V12.8203C258.014 8.59583 255.443 7.12646 252.357 7.12646C248.72 7.12646 246.663 9.18358 245.818 10.5427V0H238.545V27.1834Z" fill="#0D223F" />
    <path d="M271.342 27.5875C274.611 27.5875 277.66 26.8528 280.158 25.2365L277.55 20.8284C276.264 21.5998 273.95 22.6283 271.893 22.6283C269.762 22.6283 268.33 22.0039 267.962 19.4325H280.562V18.3304C280.562 8.52236 274.978 7.12646 271.085 7.12646C267.081 7.12646 260.726 9.47745 260.726 17.3753C260.726 25.3467 265.942 27.5875 271.342 27.5875ZM268.036 15.2815C268.477 13.0407 269.615 12.1958 271.048 12.1958C272.774 12.1958 273.84 12.9305 274.134 15.2815H268.036Z" fill="#0D223F" />
    <path d="M283.422 27.1834H290.696V15.208C291.651 14.4366 293.047 13.408 295.104 13.408C295.618 13.408 296.647 13.5182 296.941 13.555V7.12646H296.867C293.267 7.12646 291.577 9.18358 290.733 10.5427H290.696V7.4938H283.422V27.1834Z" fill="#0D223F" />
    <path d="M314.085 27.4773C316.583 27.4773 318.677 26.412 320.513 24.612C320.513 25.714 320.697 26.3752 320.917 27.1834H322.681C322.313 26.1916 322.203 24.7589 322.203 22.4079V12.9672C322.203 9.55092 320.66 7.4938 317.207 7.4938C314.195 7.4938 311.991 8.8897 310.007 11.0203L311.183 12.0121C312.726 10.3958 314.599 9.03664 317.134 9.03664C319.338 9.03664 320.513 10.3958 320.513 12.9672V14.5101C312.358 16.1998 309.53 19.1386 309.53 22.7753C309.53 25.6038 311.073 27.4773 314.085 27.4773ZM314.379 25.9712C312.395 25.9712 311.219 24.9426 311.219 22.6651C311.219 20.0569 313.13 17.4855 320.513 15.906V22.8855C318.86 24.7222 316.656 25.9712 314.379 25.9712Z" fill="#0D223F" />
    <path d="M327.347 27.1834H329.037V12.3427C330.837 10.506 333.004 9.03664 335.135 9.03664C337.522 9.03664 338.441 10.3591 338.441 13.0407V27.1834H340.13V12.8203C340.13 9.33052 338.624 7.4938 335.318 7.4938C332.894 7.4938 330.506 9.22031 329.037 10.7264V7.89788H327.347V27.1834Z" fill="#0D223F" />
    <path d="M351.052 27.514C353.513 27.514 355.203 26.1181 356.525 24.6487C356.525 25.3467 356.709 26.4854 356.893 27.1834H358.693C358.325 26.1916 358.215 24.7589 358.215 22.4079V0H356.525V10.4693C355.203 8.81624 353.329 7.4938 351.089 7.4938C347.305 7.4938 344.329 10.5427 344.329 17.559C344.329 24.5753 347.268 27.514 351.052 27.514ZM351.199 25.9712C348.297 25.9712 346.056 23.3998 346.056 17.5223C346.056 11.5713 348.223 9.03664 351.125 9.03664C353.109 9.03664 354.835 10.2856 356.525 12.2693V22.9222C354.872 24.7589 353.329 25.9712 351.199 25.9712Z" fill="#0D223F" />
    <path d="M370.141 27.1834H377.415V18.5141H380.317C385.643 18.5141 392.072 17.3019 392.072 9.25705C392.072 1.21223 386.121 0 380.317 0H370.141V27.1834ZM377.415 12.9305V5.95096H380.574C383.99 5.95096 384.908 7.3836 384.908 9.44072C384.908 11.4978 383.99 12.9305 380.574 12.9305H377.415Z" fill="#0D223F" />
    <path d="M399.214 27.4773C402.116 27.4773 404.136 26.3385 405.753 24.3181C405.753 25.4201 405.936 26.3752 406.193 27.1834H413.393C412.989 26.1916 412.842 24.7589 412.842 22.4079V15.3917C412.842 9.8448 410.528 7.12646 404.724 7.12646C399.434 7.12646 396.349 8.92644 394.549 10.5427L397.524 14.657C399.177 13.4815 401.308 12.5264 403.585 12.5264C405.275 12.5264 405.753 13.2244 405.753 14.1794V14.4366C397.671 14.8039 393.594 17.4855 393.594 21.8937C393.594 25.7508 396.385 27.4773 399.214 27.4773ZM402.3 22.0773C401.381 22.0773 400.683 21.6365 400.683 20.6814C400.683 19.1753 402.226 18.257 405.753 18.1468V20.9386C405.128 21.5263 404.1 22.0773 402.3 22.0773Z" fill="#0D223F" />
    <path d="M416.584 27.1834H423.858V15.208C424.813 14.4366 426.209 13.408 428.266 13.408C428.78 13.408 429.809 13.5182 430.103 13.555V7.12646H430.029C426.429 7.12646 424.739 9.18358 423.895 10.5427H423.858V7.4938H416.584V27.1834Z" fill="#0D223F" />
    <path d="M441.511 27.4405C442.944 27.4405 445.589 27.2201 445.956 27.1099V22.0406C445.625 22.1508 444.67 22.261 444.046 22.261C441.989 22.261 441.474 21.7467 441.474 19.6529V12.7101H446.507V7.4938H441.474V0.881623H434.201V7.4938H431.005V12.7101H434.201V21.2692C434.201 25.0895 434.826 27.4405 441.511 27.4405Z" fill="#0D223F" />
    <path d="M449.194 27.1834H456.468V14.4733C457.423 13.7019 458.488 13.0774 459.737 13.0774C460.949 13.0774 461.39 13.8488 461.39 15.208V27.1834H468.663V12.8203C468.663 8.59583 466.092 7.12646 463.006 7.12646C459.37 7.12646 457.312 9.18358 456.468 10.5427V7.4938H449.194V27.1834Z" fill="#0D223F" />
    <path d="M481.954 27.5875C485.224 27.5875 488.273 26.8528 490.77 25.2365L488.162 20.8284C486.877 21.5998 484.562 22.6283 482.505 22.6283C480.375 22.6283 478.942 22.0039 478.575 19.4325H491.175V18.3304C491.175 8.52236 485.591 7.12646 481.697 7.12646C477.693 7.12646 471.338 9.47745 471.338 17.3753C471.338 25.3467 476.554 27.5875 481.954 27.5875ZM478.648 15.2815C479.089 13.0407 480.228 12.1958 481.66 12.1958C483.387 12.1958 484.452 12.9305 484.746 15.2815H478.648Z" fill="#0D223F" />
    <path d="M494.035 27.1834H501.308V15.208C502.263 14.4366 503.659 13.408 505.716 13.408C506.231 13.408 507.259 13.5182 507.553 13.555V7.12646H507.48C503.88 7.12646 502.19 9.18358 501.345 10.5427H501.308V7.4938H494.035V27.1834Z" fill="#0D223F" />
    <path d="M518.301 27.5875C522.856 27.5875 527.337 25.7875 527.337 20.5712C527.337 15.7958 522.562 15.0611 519.219 14.6203C517.235 14.3631 516.207 14.0325 516.207 13.1142C516.207 12.2325 517.015 11.8652 518.227 11.8652C519.807 11.8652 521.901 12.5999 524.031 13.8488L526.713 9.8448C524.325 8.11828 521.827 7.12646 517.529 7.12646C513.084 7.12646 509.484 9.36725 509.484 13.7754C509.484 18.8814 514.223 19.6529 517.566 20.1304C519.696 20.4243 520.615 20.7549 520.615 21.7835C520.615 22.7018 519.513 23.0692 518.264 23.0692C516.023 23.0692 513.048 22.1508 511.211 20.6814L508.529 24.7589C510.697 26.3385 513.709 27.5875 518.301 27.5875Z" fill="#0D223F" />
</svg>