<svg width="528" height="28" viewBox="0 0 528 28" fill="none" xmlns="http://www.w3.org/2000/svg">
<path d="M0 27.177H7.34514V17.2611H15.3146V11.5319H7.34514V6.09647H18.7668V0H0V27.177Z" fill="white"/>
<path d="M21.2909 27.177H28.5625V15.2044C29.5174 14.4332 30.913 13.4049 32.9696 13.4049C33.4838 13.4049 34.5121 13.5151 34.8059 13.5518V7.12478H34.7325C31.1333 7.12478 29.444 9.18142 28.5993 10.5403H28.5625V7.49204H21.2909V27.177Z" fill="white"/>
<path d="M46.7994 27.581C50.068 27.581 53.1163 26.8465 55.6136 25.2306L53.0061 20.8235C51.7207 21.5947 49.407 22.623 47.3503 22.623C45.2202 22.623 43.7879 21.9987 43.4207 19.4279H56.0176V18.3261C56.0176 8.52036 50.4353 7.12478 46.5424 7.12478C42.5393 7.12478 36.1857 9.47523 36.1857 17.3713C36.1857 25.3407 41.4008 27.581 46.7994 27.581ZM43.4941 15.2779C43.9348 13.0376 45.0733 12.1929 46.5056 12.1929C48.2317 12.1929 49.2968 12.9274 49.5906 15.2779H43.4941Z" fill="white"/>
<path d="M65.1574 27.4708C68.0587 27.4708 69.8216 26.0018 70.9968 24.239C70.9968 25.2306 71.1437 26.773 71.4375 27.177H78.8561C78.4154 26.1854 78.2685 24.7531 78.2685 22.4027V0H70.9968V9.84249C69.6379 7.89602 67.8751 7.12478 65.2309 7.12478C60.7503 7.12478 57.8123 10.7974 57.8123 17.5549C57.8123 24.3124 60.7136 27.4708 65.1574 27.4708ZM68.0587 22.0721C65.6348 22.0721 65.084 19.9421 65.084 17.5182C65.084 14.727 65.8185 13.0743 67.9853 13.0743C69.234 13.0743 70.0052 13.4416 70.9968 14.323V20.6398C70.4092 21.2642 69.1972 22.0721 68.0587 22.0721Z" fill="white"/>
<path d="M91.7741 27.581C95.0426 27.581 98.0909 26.8465 100.588 25.2306L97.9807 20.8235C96.6953 21.5947 94.3816 22.623 92.325 22.623C90.1949 22.623 88.7626 21.9987 88.3953 19.4279H100.992V18.3261C100.992 8.52036 95.4099 7.12478 91.517 7.12478C87.5139 7.12478 81.1603 9.47523 81.1603 17.3713C81.1603 25.3407 86.3754 27.581 91.7741 27.581ZM88.4688 15.2779C88.9095 13.0376 90.048 12.1929 91.4803 12.1929C93.2064 12.1929 94.2714 12.9274 94.5652 15.2779H88.4688Z" fill="white"/>
<path d="M103.852 27.177H111.124V15.2044C112.078 14.4332 113.474 13.4049 115.531 13.4049C116.045 13.4049 117.073 13.5151 117.367 13.5518V7.12478H117.294C113.694 7.12478 112.005 9.18142 111.16 10.5403H111.124V7.49204H103.852V27.177Z" fill="white"/>
<path d="M119.995 5.58231H127.267V0H119.995V5.58231ZM119.995 27.177H127.267V7.49204H119.995V27.177Z" fill="white"/>
<path d="M140.467 27.581C146.159 27.581 148.656 24.3491 149.795 21.4111L143.772 19.3912C143.111 21.962 141.752 22.5496 140.577 22.5496C138.153 22.5496 137.639 20.2726 137.639 17.408C137.639 14.323 138.483 12.3398 140.65 12.3398C142.009 12.3398 143.001 12.8907 143.625 15.2779L149.721 13.3682C148.583 10.0628 146.526 7.12478 140.724 7.12478C136.39 7.12478 130.367 9.18142 130.367 17.3713C130.367 25.4509 135.839 27.581 140.467 27.581Z" fill="white"/>
<path d="M152.162 27.177H159.434V22.219L161.086 20.2726L164.722 27.177H172.178L165.567 14.9841L171.957 7.49204H164.245L159.434 13.6252V0H152.162V27.177Z" fill="white"/>
<path d="M185.565 27.177H192.91V17.2611H200.88V11.5319H192.91V6.09647H204.332V0H185.565V27.177Z" fill="white"/>
<path d="M207.04 5.58231H214.311V0H207.04V5.58231ZM207.04 27.177H214.311V7.49204H207.04V27.177Z" fill="white"/>
<path d="M226.776 27.581C231.33 27.581 235.811 25.7814 235.811 20.5664C235.811 15.792 231.036 15.0575 227.694 14.6168C225.711 14.3597 224.683 14.0292 224.683 13.1111C224.683 12.2297 225.491 11.8624 226.703 11.8624C228.282 11.8624 230.375 12.5969 232.505 13.8456L235.186 9.84249C232.799 8.11638 230.302 7.12478 226.005 7.12478C221.561 7.12478 217.962 9.36505 217.962 13.7721C217.962 18.877 222.7 19.6482 226.042 20.1257C228.172 20.4195 229.09 20.75 229.09 21.7783C229.09 22.6965 227.988 23.0637 226.74 23.0637C224.499 23.0637 221.525 22.1456 219.688 20.6766L217.007 24.7531C219.174 26.3323 222.186 27.581 226.776 27.581Z" fill="white"/>
<path d="M238.489 27.177H245.761V14.4699C246.715 13.6987 247.781 13.0743 249.029 13.0743C250.241 13.0743 250.682 13.8456 250.682 15.2044V27.177H257.954V12.8173C257.954 8.59381 255.383 7.12478 252.298 7.12478C248.662 7.12478 246.605 9.18142 245.761 10.5403V0H238.489V27.177Z" fill="white"/>
<path d="M271.278 27.581C274.547 27.581 277.595 26.8465 280.092 25.2306L277.485 20.8235C276.199 21.5947 273.886 22.623 271.829 22.623C269.699 22.623 268.267 21.9987 267.899 19.4279H280.496V18.3261C280.496 8.52036 274.914 7.12478 271.021 7.12478C267.018 7.12478 260.664 9.47523 260.664 17.3713C260.664 25.3407 265.879 27.581 271.278 27.581ZM267.973 15.2779C268.413 13.0376 269.552 12.1929 270.984 12.1929C272.71 12.1929 273.775 12.9274 274.069 15.2779H267.973Z" fill="white"/>
<path d="M283.356 27.177H290.628V15.2044C291.582 14.4332 292.978 13.4049 295.035 13.4049C295.549 13.4049 296.577 13.5151 296.871 13.5518V7.12478H296.798C293.198 7.12478 291.509 9.18142 290.664 10.5403H290.628V7.49204H283.356V27.177Z" fill="white"/>
<path d="M314.011 27.4708C316.508 27.4708 318.602 26.4058 320.438 24.6062C320.438 25.708 320.622 26.369 320.842 27.177H322.605C322.238 26.1854 322.127 24.7531 322.127 22.4027V12.9642C322.127 9.54868 320.585 7.49204 317.133 7.49204C314.121 7.49204 311.918 8.88762 309.934 11.0177L311.11 12.0093C312.652 10.3934 314.525 9.03452 317.059 9.03452C319.263 9.03452 320.438 10.3934 320.438 12.9642V14.5066C312.285 16.196 309.457 19.1341 309.457 22.7699C309.457 25.5978 310.999 27.4708 314.011 27.4708ZM314.305 25.9651C312.322 25.9651 311.146 24.9367 311.146 22.6598C311.146 20.0522 313.056 17.4814 320.438 15.9022V22.8801C318.785 24.7164 316.582 25.9651 314.305 25.9651Z" fill="white"/>
<path d="M327.27 27.177H328.959V12.3398C330.759 10.5035 332.926 9.03452 335.056 9.03452C337.443 9.03452 338.361 10.3566 338.361 13.0376V27.177H340.051V12.8173C340.051 9.32833 338.545 7.49204 335.24 7.49204C332.816 7.49204 330.428 9.21815 328.959 10.7239V7.89602H327.27V27.177Z" fill="white"/>
<path d="M350.969 27.5075C353.43 27.5075 355.119 26.112 356.441 24.6429C356.441 25.3407 356.625 26.4792 356.809 27.177H358.608C358.241 26.1854 358.131 24.7531 358.131 22.4027V0H356.441V10.4668C355.119 8.81417 353.246 7.49204 351.006 7.49204C347.223 7.49204 344.249 10.5403 344.249 17.5549C344.249 24.5695 347.187 27.5075 350.969 27.5075ZM351.116 25.9651C348.215 25.9651 345.975 23.3943 345.975 17.5182C345.975 11.5686 348.141 9.03452 351.043 9.03452C353.026 9.03452 354.752 10.2832 356.441 12.2664V22.9168C354.789 24.7531 353.246 25.9651 351.116 25.9651Z" fill="white"/>
<path d="M370.054 27.177H377.326V18.5097H380.227C385.553 18.5097 391.98 17.2978 391.98 9.25487C391.98 1.21195 386.03 0 380.227 0H370.054V27.177ZM377.326 12.9274V5.94956H380.484C383.9 5.94956 384.818 7.38186 384.818 9.4385C384.818 11.4951 383.9 12.9274 380.484 12.9274H377.326Z" fill="white"/>
<path d="M399.12 27.4708C402.022 27.4708 404.041 26.3323 405.657 24.3124C405.657 25.4142 405.841 26.369 406.098 27.177H413.296C412.892 26.1854 412.745 24.7531 412.745 22.4027V15.3881C412.745 9.84249 410.432 7.12478 404.629 7.12478C399.341 7.12478 396.256 8.92434 394.456 10.5403L397.431 14.6536C399.083 13.4783 401.214 12.5235 403.491 12.5235C405.18 12.5235 405.657 13.2212 405.657 14.1761V14.4332C397.578 14.8005 393.501 17.4814 393.501 21.8885C393.501 25.7447 396.292 27.4708 399.12 27.4708ZM402.205 22.0721C401.287 22.0721 400.589 21.6314 400.589 20.6766C400.589 19.1708 402.132 18.2527 405.657 18.1425V20.9336C405.033 21.5213 404.005 22.0721 402.205 22.0721Z" fill="white"/>
<path d="M416.487 27.177H423.758V15.2044C424.713 14.4332 426.109 13.4049 428.165 13.4049C428.679 13.4049 429.708 13.5151 430.002 13.5518V7.12478H429.928C426.329 7.12478 424.64 9.18142 423.795 10.5403H423.758V7.49204H416.487V27.177Z" fill="white"/>
<path d="M441.408 27.4341C442.84 27.4341 445.484 27.2137 445.851 27.1036V22.0354C445.521 22.1456 444.566 22.2558 443.942 22.2558C441.885 22.2558 441.371 21.7416 441.371 19.6482V12.7071H446.402V7.49204H441.371V0.881416H434.099V7.49204H430.904V12.7071H434.099V21.2642C434.099 25.0836 434.723 27.4341 441.408 27.4341Z" fill="white"/>
<path d="M449.089 27.177H456.36V14.4699C457.315 13.6987 458.38 13.0743 459.629 13.0743C460.841 13.0743 461.282 13.8456 461.282 15.2044V27.177H468.553V12.8173C468.553 8.59381 465.982 7.12478 462.897 7.12478C459.262 7.12478 457.205 9.18142 456.36 10.5403V7.49204H449.089V27.177Z" fill="white"/>
<path d="M481.841 27.581C485.11 27.581 488.158 26.8465 490.655 25.2306L488.048 20.8235C486.762 21.5947 484.449 22.623 482.392 22.623C480.262 22.623 478.83 21.9987 478.462 19.4279H491.059V18.3261C491.059 8.52036 485.477 7.12478 481.584 7.12478C477.581 7.12478 471.227 9.47523 471.227 17.3713C471.227 25.3407 476.442 27.581 481.841 27.581ZM478.536 15.2779C478.976 13.0376 480.115 12.1929 481.547 12.1929C483.273 12.1929 484.338 12.9274 484.632 15.2779H478.536Z" fill="white"/>
<path d="M493.919 27.177H501.191V15.2044C502.146 14.4332 503.541 13.4049 505.598 13.4049C506.112 13.4049 507.14 13.5151 507.434 13.5518V7.12478H507.361C503.761 7.12478 502.072 9.18142 501.227 10.5403H501.191V7.49204H493.919V27.177Z" fill="white"/>
<path d="M518.179 27.581C522.733 27.581 527.213 25.7814 527.213 20.5664C527.213 15.792 522.439 15.0575 519.097 14.6168C517.114 14.3597 516.086 14.0292 516.086 13.1111C516.086 12.2297 516.893 11.8624 518.105 11.8624C519.685 11.8624 521.778 12.5969 523.908 13.8456L526.589 9.84249C524.202 8.11638 521.705 7.12478 517.408 7.12478C512.964 7.12478 509.365 9.36505 509.365 13.7721C509.365 18.877 514.102 19.6482 517.444 20.1257C519.574 20.4195 520.493 20.75 520.493 21.7783C520.493 22.6965 519.391 23.0637 518.142 23.0637C515.902 23.0637 512.927 22.1456 511.091 20.6766L508.41 24.7531C510.577 26.3323 513.588 27.581 518.179 27.581Z" fill="white"/>
</svg>
